<svg version="1.2" xmlns="http://www.w3.org/2000/svg" viewBox="0 0 1080 720" width="1080" height="720">
	<style>
		.s0 { fill: #004729 } 
		.s1 { fill: #48b291 } 
	</style>
	<path id="Path 2" fill-rule="evenodd" class="s0" d="m47 557.18l0.87-29.97h1.31c4.07 19.78 13.24 36.51 32.73 36.51 12.95 0 21.09-8.43 21.09-19.63 0-13.39-11.63-17.89-24-22.99l-6.11-2.47c-15.71-6.54-25.16-14.4-25.16-28.8 0-17.6 15.85-29.96 34.47-29.96 12.8 0 22.26 3.2 28.08 5.52l-0.59 26.19h-1.31c-4.51-18.77-11.78-29.68-27.05-29.68-11.49 0-19.2 7.42-19.2 17.46 0 10.18 6.25 15.13 21.67 21.09l6.55 2.62c18.61 7.27 26.91 15.56 26.91 30.25 0 18.48-15.13 32.44-36.37 32.44-13.82 0-27.35-4.65-33.89-8.58zm145.85-0.73v1.31c-4.65 4.51-10.33 7.13-15.71 7.13-7.71 0-10.76-4.95-11.49-9.46-4.22 5.39-10.77 9.46-18.04 9.46-11.49 0-17.74-8.73-17.74-18.33 0-8.73 5.52-12.95 18.32-17.16l17.17-5.53v-12.51c0-11.2-1.46-16.58-7.42-16.58-5.09 0-6.11 4.8-7.71 11.49-1.45 5.38-3.78 8-8.72 8-5.1 0-8.44-3.06-9.75-5.24 2.47-8 11.49-15.56 26.62-15.56 17.3 0 25.31 7.56 25.31 19.49v36.95c0 4.36 1.31 7.56 5.38 7.56 1.74 0 2.76-0.44 3.78-1.02zm-27.49-2.62v-28.51l-10.04 3.49c-6.54 2.33-8.14 5.82-8.14 12.37 0 8.14 3.78 15.71 11.34 15.71 3.06 0 5.24-1.17 6.84-3.06zm99.13-6.25c0 7.27 1.17 11.49 8.15 12.07v1.02l-21.97 4.22c-2.03-2.33-3.49-5.97-4.22-10.91-3.92 6.11-10.61 11.49-21.23 11.49-13.24 0-18.91-10.18-18.91-21.53v-35.78c0-4.94-1.74-8.15-8.29-8.44v-1.02l25.89-4.94h1.02v49.46c0 8.87 3.35 14.39 10.76 14.39 4.08 0 7.86-1.74 10.62-4.79-0.29-2.19-0.44-4.81-0.44-7.57v-37.09c0-5.09-1.6-8.15-8.43-8.44v-1.02l26.04-4.94h1.01zm81.85 0.14c0 6.41 0.88 11.06 8 11.93v1.02l-21.82 4.22c-1.89-2.18-3.49-5.82-4.21-10.04-3.06 4.8-9.89 10.48-19.78 10.48-14.7 0-25.46-13.39-25.46-33.9 0-22.11 13.23-37.82 36.07-37.82 2.77 0 5.82 0.29 8.58 1.02v-21.67c0-5.24-1.74-8.44-8.43-8.58v-1.02l26.18-5.82h0.87zm-18.32 5.67c-0.15-1.6-0.3-3.34-0.3-5.23v-47.13c-1.74-3.35-4.5-5.97-9.16-5.97-9.45 0-15.56 11.79-15.56 33.31 0 19.79 6.4 29.39 15.42 29.39 4.94 0 7.56-1.89 9.6-4.37zm37.49 10.33v-0.87l1.61-0.29c4.65-0.73 6.4-2.62 6.4-8v-45.24c0-5.24-1.6-8.58-8.01-8.58v-1.02l25.75-5.97h0.87v60.81c0 5.38 1.75 7.27 6.4 8l1.6 0.29v0.87zm7.42-84.37c0-5.09 4.22-9.45 9.6-9.45 5.53 0 9.75 4.36 9.75 9.45 0 4.95-4.22 9.32-9.75 9.32-5.38 0-9.6-4.37-9.6-9.32zm380.62-248.38v96.54c0 3.32-2.7 6.02-6.03 6.02-3.32 0-6.02-2.7-6.02-6.02v-96.54c0-3.33 2.7-6.02 6.02-6.02 3.33 0 6.03 2.69 6.03 6.02zm104.74 131.7v143.46c0 3.32-2.71 6.03-6.03 6.03-3.33 0-6.02-2.71-6.02-6.03v-143.46c0-3.33 2.69-6.03 6.02-6.03 3.32 0 6.03 2.7 6.03 6.03z"/>
	<path id="Path 3" fill-rule="evenodd" class="s0" d="m823.37 394.66v125.84c0 3.33-2.7 6.02-6.02 6.02-3.33 0-6.03-2.69-6.03-6.02v-125.84c0-3.32 2.7-6.02 6.03-6.02 3.32 0 6.02 2.7 6.02 6.02zm-34.92 11.9v157.87c0 3.32-2.69 6.02-6.01 6.02-3.33 0-6.03-2.7-6.03-6.02v-157.87c0-3.33 2.7-6.02 6.02-6.02 3.33 0 6.02 2.69 6.02 6.02zm-34.91-10.58v161.63c0 3.33-2.69 6.03-6.02 6.03-3.32 0-6.02-2.7-6.02-6.03v-161.63c0-3.32 2.7-6.02 6.02-6.02 3.33 0 6.02 2.7 6.02 6.02zm-139.64-88.77v114.8c0 3.32-2.7 6.02-6.02 6.02-3.33 0-6.03-2.7-6.03-6.02v-114.8c0-3.32 2.7-6.03 6.03-6.03 3.32 0 6.02 2.71 6.02 6.03z"/>
	<path id="Path 4" fill-rule="evenodd" class="s0" d="m642.79 310.98c-3.33 0-6.03 2.7-6.03 6.03v105c0 3.32 2.7 6.02 6.03 6.02 3.32 0 6.02-2.7 6.02-6.02v-105c0-3.33-2.7-6.03-6.02-6.03zm0 175.09c-3.33 0-6.03 2.7-6.03 6.02v54.91c0 3.32 2.7 6.02 6.03 6.02 3.32 0 6.02-2.7 6.02-6.02v-54.91c0-3.32-2.7-6.02-6.02-6.02zm34.91-16.64c3.32 0 6.02-2.69 6.02-6.02v-146.41c0-3.32-2.7-6.02-6.02-6.02-3.33 0-6.02 2.7-6.02 6.02v146.41c0 3.33 2.69 6.02 6.02 6.02z"/>
	<path id="Path 5" fill-rule="evenodd" class="s0" d="m683.64 498.15l0.16 74.92c0 3.33-2.74 6.03-6.11 6.03-3.27 0-5.94-2.7-5.94-6.02l-0.16-74.93c0-3.33 2.71-6.02 6.03-6.02 3.32 0 6.02 2.69 6.02 6.02zm-244.3-363.09v70.16c0 3.32-2.7 6.02-6.02 6.02-3.33 0-6.03-2.7-6.03-6.02v-70.16c0-3.32 2.7-6.02 6.03-6.02 3.32 0 6.02 2.7 6.02 6.02zm-34.91 0v33.88c0 3.32-2.7 6.02-6.02 6.02-3.33 0-6.02-2.7-6.02-6.02v-33.88c0-3.32 2.69-6.02 6.02-6.02 3.32 0 6.02 2.7 6.02 6.02z"/>
	<path id="Path 6" fill-rule="evenodd" class="s0" d="m474.26 135.06v125.17c0 3.33-2.7 6.02-6.03 6.02-3.32 0-6.02-2.69-6.02-6.02v-125.17c0-3.32 2.7-6.02 6.02-6.02 3.33 0 6.03 2.7 6.03 6.02zm34.9-86.01v267.45c0 3.33-2.7 6.03-6.02 6.03-3.33 0-6.02-2.7-6.02-6.03v-267.45c0-3.33 2.69-6.03 6.02-6.03 3.32 0 6.02 2.7 6.02 6.03zm34.92-21.28v346.62c0 3.32-2.7 6.03-6.02 6.03-3.33 0-6.03-2.71-6.03-6.03v-346.62c0-3.33 2.7-6.03 6.03-6.03 3.32 0 6.02 2.7 6.02 6.03zm34.91-9.74v416.12c0 3.32-2.7 6.03-6.03 6.03-3.32 0-6.02-2.71-6.02-6.03v-416.12c0-3.33 2.7-6.03 6.02-6.03 3.33 0 6.03 2.7 6.03 6.03zm34.91 36.18v201.54c0 3.32-2.7 6.02-6.02 6.02-3.33 0-6.03-2.7-6.03-6.02v-201.54c0-3.32 2.7-6.02 6.03-6.02 3.32 0 6.02 2.7 6.02 6.02zm34.91 37.91v158.01c0 3.33-2.7 6.03-6.02 6.03-3.33 0-6.03-2.7-6.03-6.03v-158.01c0-3.33 2.7-6.03 6.03-6.03 3.32 0 6.02 2.7 6.02 6.03zm34.91 22.16v156.35c0 3.33-2.7 6.02-6.02 6.02-3.33 0-6.02-2.69-6.02-6.02v-156.35c0-3.32 2.69-6.02 6.02-6.02 3.32 0 6.02 2.7 6.02 6.02zm69.82 43.04v16.84c0 3.32-2.69 6.02-6.02 6.02-3.32 0-6.02-2.7-6.02-6.02v-16.84c0-3.32 2.7-6.02 6.02-6.02 3.33 0 6.02 2.7 6.02 6.02zm34.91 0v151.28c0 3.33-2.69 6.03-6.02 6.03-3.32 0-6.02-2.7-6.02-6.03v-151.28c0-3.32 2.7-6.02 6.02-6.02 3.33 0 6.02 2.7 6.02 6.02zm34.92 35.99v117.93c0 3.33-2.7 6.03-6.02 6.03-3.33 0-6.03-2.7-6.03-6.03v-117.93c0-3.32 2.7-6.02 6.03-6.02 3.32 0 6.02 2.7 6.02 6.02zm34.92 56.44v70.14c0 3.32-2.71 6.02-6.03 6.02-3.33 0-6.02-2.7-6.02-6.02v-70.14c0-3.33 2.69-6.03 6.02-6.03 3.32 0 6.03 2.7 6.03 6.03zm34.9 56.43v191.27c0 3.32-2.7 6.03-6.02 6.03-3.33 0-6.03-2.71-6.03-6.03v-191.27c0-3.32 2.7-6.03 6.03-6.03 3.32 0 6.02 2.71 6.02 6.03zm34.92 27.62v151.01c0 3.33-2.7 6.03-6.03 6.03-3.32 0-6.02-2.7-6.02-6.03v-151.01c0-3.33 2.7-6.03 6.02-6.03 3.33 0 6.03 2.7 6.03 6.03zm34.9 20.71v111.68c0 3.33-2.69 6.03-6.02 6.03-3.32 0-6.02-2.7-6.02-6.03v-111.68c0-3.33 2.7-6.02 6.02-6.02 3.33 0 6.02 2.69 6.02 6.02zm34.92 4.77v96.94c0 3.32-2.7 6.02-6.02 6.02-3.33 0-6.03-2.7-6.03-6.02v-96.94c0-3.33 2.7-6.03 6.03-6.03 3.32 0 6.02 2.7 6.02 6.03zm34.91 2.85v50.03c0 3.32-2.7 6.02-6.03 6.02-3.32 0-6.02-2.7-6.02-6.02v-50.03c0-3.32 2.7-6.02 6.02-6.02 3.33 0 6.03 2.7 6.03 6.02z"/>
	<path id="Path 7" class="s0" d="m468.23 52.94c-3.32 0-6.02 2.71-6.02 6.03v33.15c0 3.32 2.7 6.02 6.02 6.02 3.33 0 6.03-2.7 6.03-6.02v-33.15c0-3.32-2.7-6.03-6.03-6.03z"/>
	<path id="Path 8" fill-rule="evenodd" class="s1" d="m868.59 355.46c-22.55 34.74-48.14 57.72-72.07 64.68-5.05 1.48-10.06 2.19-14.89 2.19-15.34 0-28.89-7.22-36.64-20.24-15.94 11.61-26.36 30.36-26.36 51.55v103.97c0 3.33-2.7 6.03-6.02 6.03-3.33 0-6.03-2.7-6.03-6.03v-0.82c0-28.45-18.72-52.59-44.49-60.8-15.57 32.07-49.28 31.47-78.28 9.68-8.8-5.54-17.92-11.27-27.65-14.2-2.42-0.72-4.2-2.6-4.75-5.01-0.55-2.38 0.21-4.79 2.03-6.47 23.92-22.06 45.34-34.48 63.63-36.9 17.8-2.39 35.23 5.87 43.61 20.43 0.96 1.68 0.88 3.73-0.23 5.35-1.15 1.69-3.12 2.56-5.13 2.26-14.81-2.2-27.31 4.41-34.66 9.71 9.51-1.49 34.73-0.82 42.78 3.03 17.99 5.11 33.26 16.67 43.14 32.06v-138.9c0-26.76-16.59-49.7-40.01-59.15-22.13 28.85-57.62 3.82-81.44-24.46-2.3-2.56-0.22-6.92 3.15-6.99 11.43-0.67 19.89-4.4 28.06-8 16.42-9.24 42.77-10.48 49.37 12.25 0.91 2.4-1.36 4.97-3.83 4.56-19.28-1.97-24.15 0.61-27.7 7.44 10.54-3.1 22.35-2.39 32.33 2.32 16.65 5.52 30.75 16.67 40.07 31.17v-178.85c0-3.32 2.7-6.02 6.03-6.02 3.32 0 6.02 2.7 6.02 6.02v81.03l7.65-7.45c0.02-0.03 0.02-0.03 0.04-0.06 0.28-0.38 0.68-0.83 1.1-1.31q1.52-1.76 2.97-2.96c2.1-1.9 7.17-6.21 12.94-8.92-2.89-0.84-8.88-1.08-12.55 1.91-1 0.82-2.37 0.93-3.53 0.42-1.07-0.5-1.73-1.48-1.8-2.63-0.4-7.34 1.84-12.44 8.94-15.92 8.08-3.97 20.11-4.73 35.83-2.24 1.18 0.19 2.13 0.96 2.55 2.07 0.43 1.15 0.22 2.4-0.57 3.35-3.15 3.82-5.29 8.61-7.37 13.23-3.29 7.33-6.69 14.92-14.19 18.61-3 1.47-6.21 2.22-9.42 2.22-1.78 0-3.53-0.32-5.25-0.78-0.19 0.29-12.26 12.74-17.34 17.97v156.91c10.88-16.93 28.25-29.3 48.62-33.46q0.1-0.03 0.2-0.06l1.68-0.35q2.23-0.48 4.53-0.81 1.19-0.18 2.37-0.29 2.11-0.23 4.25-0.33 0.29-0.01 0.56-0.04 0.43-0.05 0.86-0.06c0 0.06 0.22 0.01 0.33 0.05 4.52-0.09 8.97 0.17 13.26 0.81-0.81-1.04-2.33-2.51-4.75-3.96-5.96-3.55-19.94-8.34-46.74-0.46-1.2 0.34-2.52 0.03-3.44-0.81-0.86-0.81-1.24-1.95-1-3.08 3.57-16.7 16.81-30.3 34.54-35.47 16.35-4.75 30.12-0.58 44.69 3.86 13.13 4 26.68 8.16 44.32 7.01 2.4-0.05 4.61 1.04 5.84 3.14 1.27 2.19 1.22 4.87-0.16 7zm-769.08 304.08h40.88v1.17l-2.04 0.14c-4.51 0.58-7.42 2.48-7.42 8.29v29.53c-10.47 6.55-23.86 10.33-34.47 10.33-28.52 0-49.46-21.09-49.46-52.65 0-31.72 22.4-53.24 51.06-53.24 10.18 0 21.81 2.76 30.98 6.69v25.89h-1.31c-5.67-22.69-16.73-30.69-29.39-30.69-17.59 0-29.23 19.49-29.23 48.14 0 30.26 9.89 53.97 28.36 53.97 5.1 0 9.89-1.46 13.53-4.22v-33.75c0-5.96-2.47-7.27-9.45-8.29l-2.04-0.14z"/>
	<path id="Path 9" fill-rule="evenodd" class="s1" d="m203.64 643.25c-1.16 4.51-4.51 10.47-9.6 10.47-1.89 0-3.93-0.72-6.55-2.32-2.47-1.6-4.07-2.47-6.11-2.47-2.9 0-4.94 1.89-6.25 4.94v43.93c0 5.38 2.77 7.42 8.44 8l2.91 0.29v0.87h-38.26v-0.87l1.6-0.29c4.95-0.87 6.69-2.62 6.69-8v-45.24c0-5.09-1.89-8.43-8.29-8.58v-1.02l25.89-5.96h0.58v15.12c2.62-6.69 8.3-14.98 17.02-14.98 5.97 0 10.19 3.79 11.93 6.11zm64.72 40.59c-5.09 17.45-14.84 25.02-27.2 25.02-17.17 0-30.11-14.11-30.11-34.48 0-21.67 13.23-37.67 30.4-37.67 16.87 0 25.46 12.51 25.46 26.03 0 0.3 0 0.88-0.15 2.33h-39.57v0.88c0 19.34 9.6 28.65 21.82 28.65 8 0 13.68-3.2 18.48-11.06zm-41.17-20.36h24c-0.43-14.98-3.93-25.17-10.76-25.17-7.13 0-12.66 8.73-13.24 25.17zm110.86 20.36c-5.09 17.46-14.84 25.02-27.2 25.02-17.17 0-30.11-14.11-30.11-34.47 0-21.68 13.23-37.68 30.4-37.68 16.87 0 25.46 12.51 25.46 26.04 0 0.29 0 0.87-0.15 2.33h-39.56v0.87c0 19.35 9.59 28.66 21.81 28.66 8 0 13.68-3.21 18.48-11.06zm-41.17-20.37h24c-0.44-14.98-3.93-25.16-10.76-25.16-7.13 0-12.66 8.73-13.24 25.16zm127.41 42.62v0.88h-34.47v-0.88l1.89-0.29c4.22-0.72 5.82-2.62 5.82-8v-38.4c0-9.02-3.34-14.26-11.06-14.26-4.36 0-8.72 2.04-11.63 5.39v47.27c0 5.38 1.74 7.28 6.25 8l1.6 0.29v0.88h-34.47v-0.88l1.6-0.29c4.8-0.72 6.4-2.62 6.4-8v-45.09c0-5.09-1.75-8.44-8.29-8.58v-1.17l25.89-5.96h0.58v12.51c3.64-5.68 11.35-12.8 22.4-12.8 13.97 0 19.35 10.04 19.35 20.22v40.87c0 5.38 1.6 7.28 6.4 8zm36.63 0.87v-1.01l2.33-0.44c4.36-0.87 8-2.18 8-8v-82.91c0-5.82-3.64-7.42-8-8.15l-2.33-0.29v-1.02h40.59v1.02l-2.19 0.29c-4.36 0.73-8.14 2.33-8.14 8.15v82.91c0 5.82 3.78 7.13 8.14 8l2.19 0.44v1.01zm129.19-0.87v0.87h-34.47v-0.87l1.89-0.29c4.21-0.73 5.81-2.62 5.81-8v-38.4c0-9.02-3.34-14.26-11.05-14.26-4.36 0-8.73 2.04-11.64 5.39v47.27c0 5.38 1.75 7.27 6.26 8l1.6 0.29v0.87h-34.48v-0.87l1.6-0.29c4.8-0.73 6.4-2.62 6.4-8v-45.09c0-5.09-1.74-8.44-8.29-8.59v-1.16l25.89-5.97h0.59v12.52c3.63-5.68 11.34-12.8 22.4-12.8 13.96 0 19.34 10.03 19.34 20.22v40.87c0 5.38 1.6 7.27 6.4 8zm11.49 0.87v-0.87l1.6-0.29c4.66-0.73 6.4-2.62 6.4-8v-45.24c0-5.24-1.6-8.58-8-8.58v-1.02l25.75-5.97h0.87v60.81c0 5.38 1.75 7.27 6.4 8l1.6 0.29v0.87zm7.42-84.37c0-5.09 4.22-9.45 9.6-9.45 5.53 0 9.75 4.36 9.75 9.45 0 4.95-4.22 9.32-9.75 9.32-5.38 0-9.6-4.37-9.6-9.32zm42.41 68.95v-48.73h-7.85v-1.16c10.9-2.62 18.32-10.62 21.81-20.51h4.66v17.46h15.27l-1.31 4.21h-13.96v45.24c0 8 2.62 12.37 10.04 12.37 2.32 0 4.8-0.59 6.69-1.75v1.16c-5.09 5.1-12.22 8.59-19.2 8.59-9.6 0-16.15-5.97-16.15-16.88zm44.44 15.42v-0.87l1.6-0.29c4.66-0.73 6.41-2.62 6.41-8v-45.24c0-5.24-1.6-8.58-8.01-8.58v-1.02l25.75-5.97h0.87v60.81c0 5.38 1.75 7.27 6.4 8l1.6 0.29v0.87zm7.42-84.37c0-5.09 4.22-9.45 9.6-9.45 5.53 0 9.75 4.36 9.75 9.45 0 4.95-4.22 9.32-9.75 9.32-5.38 0-9.6-4.37-9.6-9.32zm99.69 77.1v1.31c-4.65 4.51-10.32 7.13-15.71 7.13-7.7 0-10.76-4.95-11.49-9.46-4.21 5.38-10.76 9.46-18.03 9.46-11.5 0-17.75-8.73-17.75-18.33 0-8.73 5.53-12.95 18.33-17.17l17.16-5.52v-12.51c0-11.2-1.45-16.58-7.42-16.58-5.09 0-6.11 4.79-7.71 11.49-1.45 5.38-3.78 8-8.72 8-5.09 0-8.44-3.06-9.75-5.24 2.47-8 11.49-15.57 26.62-15.57 17.31 0 25.31 7.57 25.31 19.5v36.94c0 4.37 1.31 7.57 5.38 7.57 1.75 0 2.77-0.44 3.78-1.02zm-27.49-2.62v-28.51l-10.04 3.49c-6.54 2.33-8.14 5.82-8.14 12.37 0 8.14 3.78 15.7 11.34 15.7 3.06 0 5.24-1.16 6.84-3.05zm41.37-5.53v-48.73h-7.85v-1.16c10.91-2.62 18.33-10.62 21.82-20.51h4.65v17.46h15.28l-1.31 4.21h-13.97v45.24c0 8 2.62 12.37 10.04 12.37 2.32 0 4.8-0.59 6.69-1.75v1.16c-5.09 5.1-12.22 8.59-19.2 8.59-9.6 0-16.15-5.97-16.15-16.88zm44.45 15.42v-0.87l1.6-0.29c4.65-0.73 6.39-2.62 6.39-8v-45.24c0-5.24-1.59-8.58-7.99-8.58v-1.02l25.74-5.97h0.87v60.81c0 5.38 1.75 7.27 6.41 8l1.6 0.29v0.87zm7.41-84.37c0-5.09 4.22-9.45 9.6-9.45 5.53 0 9.75 4.36 9.75 9.45 0 4.95-4.22 9.32-9.75 9.32-5.38 0-9.6-4.37-9.6-9.32zm81.46 16.01h19.63v0.87c-5.96 1.89-9.6 9.16-13.38 19.35l-18.18 48.43h-6.26l-18.47-47.85c-4.8-12.36-7.27-18.33-11.49-19.93v-0.87h34.04v0.87l-1.9 0.44c-5.37 1.3-7.41 4.79-2.76 17.01l11.93 31.28 11.35-29.82c4.21-11.49 4.65-16.73-3.06-18.47l-1.45-0.44zm80.92 45.24c-5.09 17.45-14.84 25.02-27.2 25.02-17.16 0-30.11-14.11-30.11-34.48 0-21.67 13.23-37.67 30.4-37.67 16.87 0 25.45 12.51 25.45 26.03 0 0.29 0 0.88-0.14 2.33h-39.57v0.88c0 19.34 9.6 28.65 21.82 28.65 8 0 13.68-3.2 18.47-11.06zm-41.16-20.36h24c-0.43-14.99-3.93-25.17-10.76-25.17-7.13 0-12.66 8.73-13.24 25.17z"/>
</svg>